<svg xmlns="http://www.w3.org/2000/svg" width="97" height="75" viewBox="0 0 97 75"><defs><style>.a{fill:rgba(88,224,133,0.2);}.b{fill:#58e078;}.c,.d,.f,.j{fill:none;}.c{stroke:#fff;stroke-linejoin:round;stroke-miterlimit:10;stroke-width:3px;}.c,.f{stroke-linecap:round;}.d{stroke:#d3f5e7;}.e{fill:#aae3cc;opacity:0.33;}.f{stroke:#4acb82;stroke-width:2px;opacity:0.34;}.g,.h{fill:#afe5ce;font-family:PingFangSC-Medium, PingFang SC;font-weight:500;}.g{font-size:13px;}.h{font-size:4px;}.i{stroke:none;}</style></defs><g transform="translate(-12.089 2.364)"><g transform="translate(-18.5 -2.516)"><rect class="a" width="68" height="68" rx="34" transform="translate(44.589 7.152)"/><rect class="b" width="48" height="48" rx="24" transform="translate(54.589 17.152)"/><path class="c" d="M0,3.355,3.78,7.287,11.146,0" transform="translate(72.97 37.652)"/><g class="d" transform="translate(70.589 0.152)"><circle class="i" cx="2.5" cy="2.5" r="2.5"/><circle class="j" cx="2.5" cy="2.5" r="2"/></g><circle class="e" cx="2" cy="2" r="2" transform="translate(117.589 52.152)"/><g class="d" transform="translate(30.589 40.152)"><circle class="i" cx="2" cy="2" r="2"/><circle class="j" cx="2" cy="2" r="1.5"/></g><path class="f" d="M105.5,14.152l2.779-2.779"/><path class="f" d="M105.5,14.152l2.779-2.779" transform="translate(43.231 -67.068) rotate(45)"/><path class="f" d="M105.5,14.152l2.779-2.779" transform="translate(17.996 76.713) rotate(-45)"/></g><text class="g" transform="translate(105.089 39.636)"><tspan x="-3.933" y="0">+</tspan></text><g transform="translate(19.395 23.286) rotate(45)"><text class="h" transform="translate(1 4)"><tspan x="-1.21" y="0">+</tspan></text></g></g></svg>